<svg version="1.2" xmlns="http://www.w3.org/2000/svg" viewBox="0 0 1000 1000" width="1000" height="1000"><style>.a{fill:#fff}.b{fill:#050505}</style><path class="a" d="m475.3 505l-0.1-168.8c0 0.1 5.5-158.6-161.2-162.4-166.7-3.9-170.9 148.1-171.3 158.7-0.3 10.6-4.8 149.5 151.3 172.5"/><path class="a" d="m552.8 505l158.7 1.3c0-0.1 144.8-8.8 145-153.8 0.2-145-140.9-150.6-151.2-150-10.4 0.6-150.1-4.2-151.3 140-1.2 144.2-1.2 162.5-1.2 162.5z"/><path class="a" d="m550.3 541.3h147.5c0 0 145.3 1.1 143.7 157.5-1.6 156.3-165.2 132.2-182.5 127.5-17.3-4.8-105.4-31.2-107.5-130-2.1-98.9-1.2-155-1.2-155z"/><path class="a" d="m475 540v137.5c0 0-2.6 130.5-138.8 131.3-136.1 0.7-132-130-131.2-142.6 0.8-12.5 10.6-125.4 128.8-126.2 118.1-0.8 141.2 0 141.2 0z"/><path  d="m292 481.6c0 0 47.3-47.1 114.4-40.7 67 6.5 83.8 25.9 131.8 58.2 48 32.3 103.8 35.6 149.2 38.8 45.5 3.1 123.2-9.2 176.4-50.4 27.7-21.5 36.9-34 52.2-55-10.8 7.4-30.8 19.5-69.6 27.8-38.8 8.4-84.5 25.5-149.3-15.5-64.7-41-97.6-68.8-195.7-69.8-98.1-0.9-178.9 20.5-209.4 106.6z"/><path class="b" d="m148 616.6c0 0 47.3-47.1 114.4-40.7 67 6.5 83.8 25.9 131.8 58.2 48 32.3 103.8 35.6 149.2 38.8 45.5 3.1 123.2-9.2 176.4-50.4 27.7-21.5 36.9-34 52.2-55-10.8 7.4-30.8 19.5-69.6 27.8-38.8 8.4-84.5 25.5-149.3-15.5-64.7-41-97.6-68.8-195.7-69.8-98.1-0.9-178.9 20.5-209.4 106.6z"/></svg>